<svg width="501" height="468" viewBox="0 0 501 468" fill="none" xmlns="http://www.w3.org/2000/svg">
<path d="M50.7574 455.124C30.0468 455.159 13.2295 438.397 13.1949 417.687L12.5832 50.8127C12.5486 30.102 29.3099 13.2848 50.0206 13.2502L450.02 12.5832C470.731 12.5487 487.548 29.31 487.582 50.0206L488.194 416.895C488.229 437.605 471.467 454.423 450.757 454.457L50.7574 455.124Z" fill="white" stroke="url(#paint0_linear_124:230)" stroke-width="25"/>
<path d="M187.506 118.377L188.712 114.477L182.568 111.208L179.481 114.108L173.866 111.121L191.453 96.1735L198.26 99.7946L193.094 121.35L187.506 118.377ZM191.21 106.484C191.324 106.115 191.487 105.592 191.699 104.914C191.923 104.219 192.157 103.508 192.401 102.779C192.645 102.05 192.851 101.459 193.017 101.005C192.692 101.375 192.259 101.822 191.718 102.348C191.194 102.883 190.667 103.405 190.137 103.914C189.624 104.432 189.187 104.866 188.827 105.216L186.143 107.754L190.169 109.896L191.21 106.484ZM210.271 108.388C209.624 109.422 209.051 110.281 208.552 110.964C208.053 111.648 207.669 112.167 207.4 112.521L207.639 112.648C208.572 112.173 209.464 111.969 210.316 112.038C211.178 112.09 212.041 112.346 212.906 112.806C213.878 113.323 214.64 113.966 215.194 114.735C215.748 115.504 216.016 116.393 215.997 117.4C216.007 118.399 215.63 119.509 214.865 120.729L209.133 129.883L204.048 127.178L208.857 119.499C210.035 117.617 210.041 116.367 208.876 115.747C207.958 115.258 207.089 115.293 206.268 115.851C205.466 116.418 204.629 117.397 203.759 118.787L199.89 124.965L194.831 122.274L206.932 102.951L211.991 105.642L210.271 108.388ZM230.703 122.274C232.221 123.081 233.202 124.146 233.646 125.467C234.09 126.788 233.744 128.355 232.608 130.169L226.876 139.322L221.818 136.631L226.626 128.952C227.21 128.02 227.509 127.241 227.524 126.616C227.539 125.991 227.237 125.515 226.619 125.186C225.666 124.679 224.788 124.709 223.985 125.276C223.2 125.853 222.367 126.845 221.486 128.251L217.633 134.405L212.574 131.713L221.379 117.653L225.193 119.682L224.72 121.904L224.905 122.003C225.778 121.586 226.702 121.388 227.677 121.41C228.67 121.441 229.678 121.729 230.703 122.274ZM239.063 139.297L241.483 135.432L248.793 139.321L246.373 143.185L239.063 139.297ZM266.704 145.29L274.181 140.285L279.716 143.23L266.566 150.979L262.123 158.073L256.985 155.339L261.332 148.398L262.13 133.874L267.692 136.833L266.704 145.29ZM287.189 161.984C285.713 164.34 283.924 165.806 281.822 166.383C279.729 166.942 277.544 166.616 275.267 165.404C273.854 164.652 272.776 163.706 272.031 162.564C271.297 161.405 270.952 160.114 270.996 158.691C271.068 157.261 271.592 155.766 272.569 154.206C274.023 151.884 275.796 150.443 277.888 149.884C279.981 149.325 282.174 149.656 284.47 150.877C285.882 151.629 286.952 152.57 287.679 153.703C288.423 154.845 288.765 156.122 288.703 157.536C288.67 158.942 288.165 160.425 287.189 161.984ZM277.707 156.94C276.953 158.143 276.543 159.156 276.475 159.979C276.417 160.785 276.786 161.399 277.581 161.822C278.358 162.235 279.101 162.212 279.812 161.754C280.551 161.289 281.297 160.454 282.051 159.251C282.804 158.047 283.204 157.051 283.251 156.262C283.315 155.483 282.95 154.882 282.156 154.459C281.397 154.055 280.649 154.065 279.914 154.487C279.196 154.919 278.461 155.736 277.707 156.94ZM308.696 164.104L299.891 178.165L296.077 176.136L296.54 174.043L296.249 173.888C295.344 174.356 294.393 174.539 293.397 174.439C292.411 174.321 291.468 174.023 290.568 173.544C289.614 173.037 288.861 172.398 288.307 171.629C287.753 170.86 287.485 169.972 287.504 168.965C287.54 167.967 287.935 166.866 288.688 165.663L294.42 156.51L299.479 159.201L294.671 166.879C294.097 167.795 293.795 168.56 293.762 169.176C293.748 169.801 294.049 170.277 294.667 170.606C295.621 171.113 296.49 171.079 297.275 170.502C298.077 169.935 298.914 168.956 299.784 167.566L303.637 161.413L308.696 164.104ZM321.513 170.584C323.032 171.392 324.013 172.456 324.457 173.777C324.901 175.098 324.555 176.665 323.419 178.479L317.687 187.632L312.628 184.941L317.437 177.262C318.021 176.33 318.32 175.551 318.335 174.926C318.349 174.301 318.048 173.825 317.43 173.496C316.476 172.989 315.598 173.019 314.796 173.586C314.011 174.163 313.178 175.155 312.297 176.561L308.444 182.715L303.385 180.023L312.19 165.963L316.004 167.992L315.53 170.214L315.716 170.313C316.589 169.896 317.513 169.698 318.488 169.72C319.481 169.751 320.489 170.039 321.513 170.584ZM334.78 177.642C335.805 178.186 336.503 178.818 336.877 179.537C337.279 180.248 337.5 180.986 337.538 181.752L337.644 181.809L339.097 180.277L343.467 182.602L334.646 196.688C333.404 198.671 331.815 199.837 329.879 200.185C327.96 200.543 325.676 200.017 323.028 198.608C321.845 197.979 320.84 197.365 320.014 196.767C319.188 196.17 318.455 195.498 317.816 194.751L320.348 190.708C321.008 191.534 321.682 192.243 322.37 192.835C323.048 193.444 323.961 194.054 325.109 194.665C327.139 195.745 328.59 195.59 329.46 194.2L329.619 193.946C329.927 193.454 330.346 192.898 330.877 192.276L330.718 192.191C330.032 192.572 329.253 192.802 328.38 192.88C327.518 192.941 326.584 192.704 325.577 192.168C324.024 191.342 323.149 190.051 322.952 188.297C322.756 186.543 323.401 184.48 324.887 182.107C326.373 179.734 327.998 178.191 329.762 177.48C331.536 176.752 333.209 176.806 334.78 177.642ZM334.331 182.419C332.936 181.677 331.485 182.509 329.977 184.916C329.213 186.137 328.838 187.112 328.851 187.843C328.875 188.556 329.258 189.11 330 189.504C330.83 189.946 331.557 190.005 332.183 189.683C332.819 189.343 333.451 188.674 334.077 187.674L334.443 187.089C335.133 185.987 335.505 185.055 335.559 184.293C335.641 183.523 335.231 182.898 334.331 182.419ZM340.269 207.238C339.686 206.928 339.199 206.635 338.807 206.358C338.397 206.073 338.055 205.811 337.779 205.574L340.168 201.761C340.418 201.962 340.687 202.172 340.973 202.392C341.23 202.62 341.536 202.827 341.889 203.015C342.807 203.504 343.595 203.561 344.252 203.188C344.917 202.841 345.589 202.125 346.268 201.04L356.793 184.234L361.931 186.967L351.677 203.341C350.541 205.155 349.337 206.458 348.064 207.25C346.809 208.051 345.53 208.421 344.226 208.36C342.912 208.316 341.593 207.942 340.269 207.238ZM377.393 200.65L368.587 214.71L364.774 212.681L365.237 210.589L364.945 210.434C364.04 210.901 363.09 211.085 362.094 210.984C361.108 210.867 360.165 210.568 359.264 210.089C358.311 209.582 357.557 208.944 357.003 208.175C356.449 207.405 356.181 206.517 356.2 205.51C356.236 204.513 356.631 203.412 357.385 202.209L363.117 193.055L368.176 195.746L363.367 203.425C362.794 204.34 362.491 205.106 362.459 205.721C362.444 206.346 362.746 206.823 363.364 207.152C364.317 207.659 365.186 207.624 365.971 207.047C366.774 206.48 367.61 205.501 368.481 204.112L372.334 197.958L377.393 200.65ZM390.21 207.129C391.728 207.937 392.71 209.001 393.153 210.322C393.597 211.643 393.251 213.21 392.116 215.024L386.384 224.177L381.325 221.486L386.133 213.808C386.717 212.875 387.017 212.097 387.031 211.472C387.046 210.847 386.744 210.37 386.126 210.041C385.173 209.534 384.295 209.564 383.492 210.132C382.707 210.708 381.874 211.7 380.993 213.107L377.14 219.26L372.081 216.569L380.887 202.508L384.701 204.537L384.227 206.76L384.412 206.858C385.285 206.442 386.209 206.244 387.184 206.266C388.177 206.297 389.186 206.584 390.21 207.129Z" fill="url(#paint1_linear_124:230)"/>
<path d="M143.49 328.68C144.65 328.68 145.75 328.98 146.79 329.58C147.83 330.16 148.68 331.07 149.34 332.31C149.98 333.53 150.3 335.12 150.3 337.08C150.3 338.06 150.25 338.92 150.15 339.66C150.07 340.38 149.93 341.06 149.73 341.7C149.53 342.34 149.27 343 148.95 343.68H143.79C144.37 342.52 144.82 341.35 145.14 340.17C145.44 338.99 145.59 337.92 145.59 336.96C145.59 336.1 145.44 335.47 145.14 335.07C144.84 334.67 144.46 334.47 144 334.47C143.44 334.47 142.99 334.77 142.65 335.37C142.29 335.95 141.8 336.94 141.18 338.34C140.68 339.4 140.16 340.32 139.62 341.1C139.06 341.88 138.38 342.48 137.58 342.9C136.78 343.32 135.77 343.53 134.55 343.53C133.17 343.53 132.02 343.19 131.1 342.51C130.16 341.83 129.46 340.89 129 339.69C128.52 338.47 128.28 337.06 128.28 335.46C128.28 334.06 128.44 332.8 128.76 331.68C129.06 330.56 129.41 329.56 129.81 328.68L134.28 330.45C133.86 331.37 133.53 332.28 133.29 333.18C133.03 334.06 132.9 334.88 132.9 335.64C132.9 336.38 133.03 336.93 133.29 337.29C133.55 337.63 133.88 337.8 134.28 337.8C134.62 337.8 134.92 337.67 135.18 337.41C135.44 337.15 135.73 336.72 136.05 336.12C136.35 335.5 136.74 334.66 137.22 333.6C137.68 332.56 138.19 331.68 138.75 330.96C139.29 330.22 139.94 329.66 140.7 329.28C141.44 328.88 142.37 328.68 143.49 328.68ZM145.77 317.575C145.77 317.055 145.72 316.585 145.62 316.165C145.5 315.725 145.36 315.275 145.2 314.815H149.37C149.63 315.435 149.85 316.095 150.03 316.795C150.21 317.495 150.3 318.385 150.3 319.465C150.3 320.545 150.13 321.495 149.79 322.315C149.45 323.115 148.87 323.745 148.05 324.205C147.21 324.665 146.04 324.895 144.54 324.895H137.7V326.905H135.36L133.56 324.355L130.08 322.885V319.135H133.41V315.055H137.7V319.135H144.15C145.23 319.135 145.77 318.615 145.77 317.575ZM133.11 301.886C133.11 301.566 133.13 301.236 133.17 300.896C133.21 300.556 133.25 300.306 133.29 300.146L138.69 300.656C138.65 300.856 138.61 301.106 138.57 301.406C138.53 301.686 138.51 302.086 138.51 302.606C138.51 303.086 138.58 303.606 138.72 304.166C138.86 304.706 139.17 305.176 139.65 305.576C140.11 305.976 140.84 306.176 141.84 306.176H150V311.906H133.41V307.646L136.05 306.746V306.476C135.23 306.016 134.54 305.376 133.98 304.556C133.4 303.716 133.11 302.826 133.11 301.886ZM133.11 290.96C133.11 288.54 133.74 286.63 135 285.23C136.26 283.83 138.16 283.13 140.7 283.13H143.25L143.25 293.36C144.11 293.32 144.82 293 145.38 292.4C145.94 291.78 146.22 290.89 146.22 289.73C146.22 288.69 146.12 287.74 145.92 286.88C145.72 286.02 145.4 285.13 144.96 284.21H149.07C149.49 285.01 149.8 285.89 150 286.85C150.2 287.79 150.3 288.98 150.3 290.42C150.3 292.1 150.01 293.6 149.43 294.92C148.83 296.22 147.9 297.25 146.64 298.01C145.38 298.77 143.77 299.15 141.81 299.15C139.81 299.15 138.17 298.81 136.89 298.13C135.61 297.43 134.66 296.47 134.04 295.25C133.42 294.01 133.11 292.58 133.11 290.96ZM137.01 290.75C137.01 291.43 137.22 292 137.64 292.46C138.06 292.9 138.73 293.16 139.65 293.24V288.32C138.91 288.34 138.29 288.56 137.79 288.98C137.27 289.38 137.01 289.97 137.01 290.75ZM133.11 271.785C133.11 269.685 133.63 268.045 134.67 266.865C135.71 265.685 137.19 265.095 139.11 265.095H150V269.055L147.81 270.165V270.285C148.39 270.745 148.87 271.225 149.25 271.725C149.61 272.205 149.87 272.765 150.03 273.405C150.21 274.045 150.3 274.825 150.3 275.745C150.3 277.185 149.86 278.385 148.98 279.345C148.1 280.305 146.75 280.785 144.93 280.785C143.15 280.785 141.83 280.175 140.97 278.955C140.11 277.715 139.63 275.925 139.53 273.585L139.44 270.825H139.2C138.46 270.825 137.94 271.005 137.64 271.365C137.32 271.725 137.16 272.215 137.16 272.835C137.16 273.495 137.28 274.225 137.52 275.025C137.74 275.825 138.03 276.635 138.39 277.455L134.61 279.105C134.11 278.145 133.74 277.065 133.5 275.865C133.24 274.645 133.11 273.285 133.11 271.785ZM142.65 272.115C142.69 273.155 142.88 273.895 143.22 274.335C143.54 274.755 144 274.965 144.6 274.965C145.16 274.965 145.58 274.815 145.86 274.515C146.12 274.215 146.25 273.815 146.25 273.315C146.25 272.615 146.03 272.025 145.59 271.545C145.15 271.045 144.58 270.795 143.88 270.795H142.59L142.65 272.115ZM133.11 240.943C133.11 239.043 133.59 237.593 134.55 236.593C135.51 235.593 137.06 235.093 139.2 235.093H150V240.823H140.97C139.71 240.823 138.84 240.993 138.36 241.333C137.86 241.673 137.61 242.173 137.61 242.833C137.61 243.753 138.02 244.393 138.84 244.753C139.64 245.113 140.78 245.293 142.26 245.293H150V251.023H140.97C139.77 251.023 138.91 251.183 138.39 251.503C137.87 251.823 137.61 252.303 137.61 252.943C137.61 253.923 138.05 254.593 138.93 254.953C139.81 255.293 141.08 255.463 142.74 255.463H150V261.193H133.41V256.873L135.45 256.033V255.883C134.77 255.443 134.21 254.813 133.77 253.993C133.33 253.153 133.11 252.123 133.11 250.903C133.11 249.683 133.32 248.683 133.74 247.903C134.14 247.103 134.7 246.453 135.42 245.953V245.773C134.68 245.253 134.11 244.583 133.71 243.763C133.31 242.923 133.11 241.983 133.11 240.943ZM144.24 224.75H139.68V216.47H144.24V224.75ZM150 201.707L133.41 208.037V202.067L143.22 199.247C143.3 199.207 143.52 199.157 143.88 199.097C144.24 199.017 144.58 198.977 144.9 198.977V198.887C144.56 198.887 144.24 198.857 143.94 198.797C143.64 198.717 143.41 198.657 143.25 198.617L133.41 195.677L133.41 189.707L150 196.037V201.707ZM126.72 184.807C126.72 183.987 126.89 183.277 127.23 182.677C127.57 182.057 128.25 181.747 129.27 181.747C130.25 181.747 130.92 182.057 131.28 182.677C131.62 183.277 131.79 183.987 131.79 184.807C131.79 185.647 131.62 186.367 131.28 186.967C130.92 187.547 130.25 187.837 129.27 187.837C128.25 187.837 127.57 187.547 127.23 186.967C126.89 186.367 126.72 185.647 126.72 184.807ZM133.41 181.957H150V187.687H133.41V181.957ZM150.3 172.801C150.3 174.501 149.57 175.911 148.11 177.031C146.65 178.131 144.52 178.681 141.72 178.681C138.88 178.681 136.74 178.121 135.3 177.001C133.84 175.861 133.11 174.391 133.11 172.591C133.11 171.471 133.34 170.581 133.8 169.921C134.26 169.241 134.84 168.681 135.54 168.241V168.121C135.12 168.201 134.54 168.271 133.8 168.331C133.06 168.371 132.34 168.391 131.64 168.391H127.2V162.631H150V166.951L147.9 168.181V168.391C148.56 168.791 149.13 169.341 149.61 170.041C150.07 170.741 150.3 171.661 150.3 172.801ZM145.77 170.461C145.77 169.541 145.48 168.891 144.9 168.511C144.32 168.131 143.43 167.931 142.23 167.911H141.78C140.48 167.911 139.48 168.101 138.78 168.481C138.08 168.841 137.73 169.521 137.73 170.521C137.73 171.201 138.06 171.771 138.72 172.231C139.38 172.671 140.41 172.891 141.81 172.891C143.19 172.891 144.2 172.671 144.84 172.231C145.46 171.771 145.77 171.181 145.77 170.461ZM133.11 151.214C133.11 148.794 133.74 146.884 135 145.484C136.26 144.084 138.16 143.384 140.7 143.384H143.25V153.614C144.11 153.574 144.82 153.254 145.38 152.654C145.94 152.034 146.22 151.144 146.22 149.984C146.22 148.944 146.12 147.994 145.92 147.134C145.72 146.274 145.4 145.384 144.96 144.464H149.07C149.49 145.264 149.8 146.144 150 147.104C150.2 148.044 150.3 149.234 150.3 150.674C150.3 152.354 150.01 153.854 149.43 155.174C148.83 156.474 147.9 157.504 146.64 158.264C145.38 159.024 143.77 159.404 141.81 159.404C139.81 159.404 138.17 159.064 136.89 158.384C135.61 157.684 134.66 156.724 134.04 155.504C133.42 154.264 133.11 152.834 133.11 151.214ZM137.01 151.004C137.01 151.684 137.22 152.254 137.64 152.714C138.06 153.154 138.73 153.414 139.65 153.494V148.574C138.91 148.594 138.29 148.814 137.79 149.234C137.27 149.634 137.01 150.224 137.01 151.004ZM141.66 124.299C144.44 124.299 146.58 125.039 148.08 126.519C149.56 127.999 150.3 130.029 150.3 132.609C150.3 134.209 149.97 135.629 149.31 136.869C148.63 138.109 147.65 139.089 146.37 139.809C145.07 140.509 143.5 140.859 141.66 140.859C138.92 140.859 136.81 140.119 135.33 138.639C133.85 137.159 133.11 135.119 133.11 132.519C133.11 130.919 133.44 129.509 134.1 128.289C134.76 127.049 135.73 126.079 137.01 125.379C138.27 124.659 139.82 124.299 141.66 124.299ZM141.66 135.039C143.08 135.039 144.17 134.849 144.93 134.469C145.67 134.089 146.04 133.449 146.04 132.549C146.04 131.669 145.67 131.049 144.93 130.689C144.17 130.309 143.08 130.119 141.66 130.119C140.24 130.119 139.17 130.309 138.45 130.689C137.73 131.049 137.37 131.679 137.37 132.579C137.37 133.439 137.73 134.069 138.45 134.469C139.17 134.849 140.24 135.039 141.66 135.039Z" fill="#768CD1"/>
<path d="M190.196 362.611C190.813 363.593 191.132 364.666 191.155 365.83C191.196 366.983 190.844 368.131 190.1 369.273C189.363 370.389 188.13 371.408 186.4 372.329C185.535 372.79 184.749 373.152 184.043 373.415C183.365 373.686 182.69 373.887 182.019 374.018C181.348 374.149 180.628 374.239 179.857 374.288L177.116 369.916C178.448 369.862 179.72 369.693 180.932 369.41C182.132 369.109 183.157 368.733 184.004 368.282C184.763 367.878 185.239 367.455 185.433 367.012C185.627 366.57 185.601 366.154 185.357 365.765C185.059 365.29 184.556 365.05 183.845 365.044C183.142 365.011 182.008 365.062 180.443 365.195C179.242 365.269 178.154 365.261 177.179 365.17C176.193 365.062 175.302 364.768 174.506 364.288C173.711 363.808 172.989 363.051 172.341 362.017C171.608 360.848 171.297 359.714 171.408 358.615C171.509 357.498 171.967 356.463 172.782 355.51C173.604 354.529 174.721 353.663 176.133 352.911C177.368 352.253 178.566 351.796 179.724 351.541C180.872 351.269 181.941 351.095 182.93 351.02L183.742 355.64C182.707 355.716 181.728 355.864 180.806 356.084C179.892 356.277 179.099 356.553 178.428 356.91C177.775 357.258 177.359 357.627 177.179 358.016C177.017 358.396 177.042 358.756 177.255 359.095C177.435 359.383 177.709 359.576 178.077 359.674C178.445 359.772 178.978 359.815 179.678 359.805C180.384 359.767 181.333 359.703 182.523 359.611C183.686 359.512 184.733 359.53 185.666 359.666C186.606 359.776 187.446 360.064 188.185 360.529C188.931 360.968 189.601 361.662 190.196 362.611ZM201.209 359.322C201.668 359.078 202.056 358.815 202.373 358.532C202.698 358.224 203.021 357.894 203.342 357.542L205.557 361.075C205.148 361.587 204.682 362.083 204.16 362.565C203.638 363.046 202.9 363.541 201.947 364.049C200.993 364.557 200.065 364.859 199.16 364.956C198.274 365.044 197.409 364.849 196.568 364.371C195.716 363.875 194.891 362.992 194.094 361.721L190.461 355.926L188.687 356.871L187.444 354.888L188.739 352.165L188.187 348.525L191.497 346.762L193.266 349.584L196.867 347.666L199.146 351.3L195.545 353.218L198.971 358.683C199.545 359.598 200.291 359.811 201.209 359.322ZM208.331 341.221C208.613 341.071 208.915 340.932 209.237 340.806C209.558 340.68 209.8 340.597 209.962 340.556L212.381 345.37C212.183 345.431 211.941 345.514 211.655 345.621C211.387 345.719 211.023 345.89 210.564 346.135C210.14 346.36 209.718 346.664 209.299 347.046C208.896 347.418 208.646 347.902 208.548 348.497C208.439 349.074 208.651 349.787 209.182 350.634L213.516 357.548L208.459 360.241L199.646 346.185L203.406 344.183L205.603 345.997L205.841 345.87C205.812 344.959 206.01 344.073 206.436 343.213C206.87 342.327 207.501 341.663 208.331 341.221ZM217.975 336.085C220.111 334.947 222.131 334.583 224.036 334.992C225.941 335.402 227.568 336.682 228.918 338.834L230.272 340.995L221.243 345.804C221.735 346.514 222.395 346.965 223.222 347.157C224.066 347.34 225.001 347.159 226.024 346.614C226.942 346.125 227.728 345.594 228.381 345.02C229.033 344.446 229.649 343.757 230.227 342.951L232.41 346.434C231.927 347.165 231.315 347.842 230.574 348.463C229.851 349.074 228.854 349.718 227.583 350.395C226.1 351.185 224.622 351.644 223.149 351.773C221.683 351.876 220.28 351.572 218.939 350.862C217.599 350.152 216.409 348.966 215.368 347.306C214.305 345.611 213.734 344.062 213.654 342.658C213.592 341.244 213.935 339.988 214.682 338.889C215.448 337.781 216.545 336.846 217.975 336.085ZM220.232 339.29C219.632 339.61 219.24 340.056 219.057 340.628C218.892 341.19 219.018 341.88 219.437 342.697L223.779 340.385C223.368 339.767 222.845 339.345 222.208 339.119C221.579 338.866 220.92 338.923 220.232 339.29ZM234.899 327.071C236.753 326.083 238.476 325.753 240.07 326.08C241.664 326.406 242.971 327.383 243.991 329.009L249.776 338.236L246.28 340.097L244.137 338.764L244.032 338.82C243.934 339.528 243.765 340.16 243.526 340.717C243.293 341.248 242.937 341.731 242.457 342.168C241.988 342.621 241.347 343.064 240.535 343.496C239.264 344.173 237.971 344.365 236.657 344.07C235.342 343.776 234.201 342.858 233.234 341.316C232.289 339.808 232.126 338.403 232.746 337.101C233.384 335.789 234.708 334.541 236.721 333.356L239.109 331.982L238.981 331.779C238.588 331.152 238.153 330.796 237.676 330.711C237.188 330.609 236.671 330.704 236.124 330.996C235.541 331.306 234.961 331.751 234.382 332.33C233.793 332.893 233.232 333.519 232.699 334.21L229.235 331.783C229.817 330.908 230.574 330.086 231.505 329.319C232.444 328.525 233.575 327.776 234.899 327.071ZM239.675 335.309C238.779 335.831 238.227 336.34 238.019 336.835C237.818 337.304 237.877 337.792 238.196 338.3C238.493 338.775 238.849 339.06 239.262 339.156C239.665 339.236 240.087 339.158 240.529 338.923C241.146 338.594 241.55 338.13 241.74 337.532C241.948 336.924 241.866 336.323 241.494 335.73L240.809 334.637L239.675 335.309ZM262.12 312.573C263.797 311.679 265.332 311.404 266.725 311.748C268.117 312.091 269.382 313.169 270.519 314.982L276.256 324.133L271.198 326.826L266.401 319.175C265.732 318.108 265.12 317.451 264.565 317.204C263.999 316.94 263.425 316.963 262.843 317.274C262.031 317.706 261.683 318.354 261.801 319.218C261.908 320.065 262.355 321.116 263.141 322.37L267.253 328.927L262.195 331.621L257.399 323.97C256.761 322.954 256.163 322.3 255.605 322.01C255.046 321.72 254.484 321.725 253.919 322.026C253.054 322.487 252.697 323.175 252.846 324.089C253.014 324.995 253.538 326.151 254.42 327.557L258.277 333.708L253.219 336.402L244.407 322.346L248.22 320.315L250.045 321.649L250.177 321.578C250.204 320.795 250.463 320.025 250.953 319.266C251.46 318.499 252.253 317.828 253.329 317.255C254.406 316.681 255.4 316.389 256.312 316.378C257.231 316.341 258.102 316.51 258.925 316.885L259.084 316.8C259.15 315.929 259.439 315.131 259.95 314.407C260.479 313.673 261.202 313.061 262.12 312.573ZM282.325 314.39L279.903 310.527L287.211 306.635L289.633 310.498L282.325 314.39ZM305.723 308.438L291.324 297.358L296.593 294.551L304.293 301.537C304.371 301.586 304.532 301.749 304.776 302.026C305.038 302.293 305.254 302.562 305.424 302.834L305.503 302.791C305.323 302.503 305.179 302.218 305.073 301.936C304.984 301.644 304.915 301.421 304.865 301.266L302.233 291.547L307.502 288.741L310.728 305.772L305.723 308.438ZM308.273 280.769C308.997 280.384 309.714 280.194 310.424 280.2C311.152 280.197 311.787 280.627 312.329 281.492C312.849 282.322 312.931 283.035 312.575 283.632C312.227 284.202 311.69 284.68 310.966 285.065C310.225 285.46 309.499 285.654 308.789 285.648C308.086 285.616 307.474 285.185 306.953 284.354C306.412 283.49 306.306 282.778 306.638 282.217C306.987 281.647 307.532 281.164 308.273 280.769ZM314.342 285.098L323.155 299.154L318.097 301.847L309.285 287.791L314.342 285.098ZM331.395 295.104C329.895 295.903 328.263 295.947 326.499 295.237C324.752 294.517 323.135 292.971 321.648 290.599C320.139 288.192 319.497 286.116 319.72 284.369C319.951 282.597 320.861 281.287 322.45 280.441C323.438 279.914 324.346 279.691 325.173 279.77C326.017 279.84 326.82 280.069 327.58 280.455L327.686 280.398C327.392 280.08 327.022 279.622 326.576 279.023C326.148 278.415 325.748 277.814 325.376 277.221L323.017 273.459L328.101 270.752L340.212 290.069L336.399 292.1L334.198 290.899L334.013 290.997C334.01 291.745 333.828 292.486 333.465 293.222C333.091 293.941 332.402 294.568 331.395 295.104ZM331.054 290.166C331.866 289.733 332.286 289.182 332.313 288.512C332.341 287.842 332.044 286.994 331.425 285.968L331.186 285.587C330.495 284.485 329.796 283.727 329.089 283.313C328.399 282.889 327.613 282.912 326.731 283.382C326.13 283.702 325.803 284.249 325.747 285.025C325.71 285.791 326.062 286.767 326.806 287.953C327.539 289.122 328.27 289.875 328.998 290.21C329.734 290.519 330.419 290.504 331.054 290.166ZM341.318 270.392C343.454 269.254 345.474 268.89 347.379 269.299C349.284 269.709 350.911 270.99 352.26 273.142L353.615 275.302L344.586 280.111C345.078 280.821 345.737 281.272 346.564 281.464C347.409 281.647 348.343 281.466 349.367 280.921C350.285 280.432 351.07 279.901 351.723 279.327C352.376 278.753 352.992 278.064 353.57 277.259L355.753 280.741C355.27 281.473 354.658 282.149 353.917 282.77C353.194 283.381 352.196 284.025 350.925 284.702C349.443 285.492 347.965 285.951 346.492 286.08C345.025 286.183 343.622 285.879 342.282 285.169C340.942 284.459 339.751 283.273 338.71 281.613C337.648 279.918 337.077 278.369 336.997 276.965C336.935 275.551 337.278 274.295 338.025 273.196C338.79 272.088 339.888 271.153 341.318 270.392ZM343.575 273.597C342.974 273.917 342.583 274.363 342.4 274.935C342.235 275.498 342.361 276.187 342.779 277.005L347.122 274.692C346.711 274.074 346.187 273.652 345.551 273.426C344.922 273.174 344.263 273.231 343.575 273.597ZM369.615 264.983C371.092 267.339 371.575 269.5 371.066 271.466C370.546 273.416 369.147 274.997 366.87 276.21C365.458 276.962 364.029 277.35 362.584 277.374C361.128 277.381 359.743 277.011 358.427 276.265C357.119 275.493 355.976 274.327 354.999 272.768C353.543 270.446 353.076 268.311 353.596 266.361C354.116 264.412 355.523 262.826 357.818 261.603C359.23 260.851 360.65 260.468 362.077 260.454C363.523 260.43 364.894 260.796 366.192 261.551C367.496 262.28 368.638 263.424 369.615 264.983ZM360.136 270.032C360.89 271.235 361.637 272.069 362.376 272.535C363.104 272.983 363.866 272.996 364.66 272.572C365.437 272.159 365.787 271.554 365.712 270.758C365.644 269.935 365.232 268.922 364.478 267.719C363.724 266.516 362.988 265.699 362.27 265.267C361.57 264.827 360.822 264.818 360.028 265.241C359.269 265.645 358.904 266.246 358.934 267.044C358.981 267.833 359.381 268.829 360.136 270.032Z" fill="url(#paint2_linear_124:230)"/>
<path d="M359.766 235.436L178.441 331.925L178.441 138.946L359.766 235.436Z" fill="url(#paint3_linear_124:230)"/>
<defs>
<linearGradient id="paint0_linear_124:230" x1="0.389063" y1="234.271" x2="511" y2="234" gradientUnits="userSpaceOnUse">
<stop stop-color="#8874C6"/>
<stop offset="0.9998" stop-color="#78B7B7"/>
<stop offset="0.9999" stop-color="#1BFFFF"/>
</linearGradient>
<linearGradient id="paint1_linear_124:230" x1="187.076" y1="109.367" x2="411.786" y2="245.874" gradientUnits="userSpaceOnUse">
<stop stop-color="#7A87CF"/>
<stop offset="1" stop-color="#22F6FB"/>
</linearGradient>
<linearGradient id="paint2_linear_124:230" x1="171.426" y1="355.079" x2="384.221" y2="235.972" gradientUnits="userSpaceOnUse">
<stop stop-color="#7988D0"/>
<stop offset="1" stop-color="#23F4FB"/>
</linearGradient>
<linearGradient id="paint3_linear_124:230" x1="359.766" y1="235.436" x2="118" y2="235.436" gradientUnits="userSpaceOnUse">
<stop stop-color="#1BFFFF"/>
<stop offset="0.838542" stop-color="#8A74C8"/>
</linearGradient>
</defs>
</svg>
